name C:/MyDriveSym/Projects/mobilecap/Data\Session20210819_0002\mocap\ForceDataProcessed\walking4_forces.mot
datacolumns 19
datarows 19
range 0.00000000 0.00900000
endheader 
time	R_ground_force_vx	R_ground_force_vy	R_ground_force_vz	R_ground_force_px	R_ground_force_py	R_ground_force_pz	R_ground_torque_x	R_ground_torque_y	R_ground_torque_z	L_ground_force_vx	L_ground_force_vy	L_ground_force_vz	L_ground_force_px	L_ground_force_py	L_ground_force_pz	L_ground_torque_x	L_ground_torque_y	L_ground_torque_z	
          0.00000000	        -16.19455700	         70.47940300	          5.80350400	          0.06925700	          0.00600000	         -0.21726500	          0.00000000	          0.27642700	          0.00000000	          0.00000000	          0.00000000	          0.00000000	          0.66900400	          0.00000000	         -0.26571800	          0.00000000	          0.00000000	          0.00000000	
          0.00050000	        -16.50382800	         71.83690400	          5.82864500	          0.06925700	          0.00600000	         -0.21726500	          0.00000000	          0.27353900	          0.00000000	          0.00000000	          0.00000000	          0.00000000	          0.66900400	          0.00000000	         -0.26571800	          0.00000000	          0.00000000	          0.00000000	
          0.00100000	        -16.81608800	         73.20666800	          5.85330800	          0.06925700	          0.00600000	         -0.21726500	          0.00000000	          0.27068500	          0.00000000	          0.00000000	          0.00000000	          0.00000000	          0.66900400	          0.00000000	         -0.26571800	          0.00000000	          0.00000000	          0.00000000	
          0.00150000	        -17.13134100	         74.58869600	          5.87748000	          0.06925700	          0.00600000	         -0.21726500	          0.00000000	          0.26786300	          0.00000000	          0.00000000	          0.00000000	          0.00000000	          0.66900400	          0.00000000	         -0.26571800	          0.00000000	          0.00000000	          0.00000000	
          0.00200000	        -17.44959000	         75.98298700	          5.90114900	          0.06978400	          0.00600000	         -0.21717000	          0.00000000	          0.26507200	          0.00000000	          0.00000000	          0.00000000	          0.00000000	          0.66900400	          0.00000000	         -0.26571800	          0.00000000	          0.00000000	          0.00000000	
          0.00250000	        -17.77083800	         77.38954100	          5.92430300	          0.07030000	          0.00600000	         -0.21707700	          0.00000000	          0.26231100	          0.00000000	          0.00000000	          0.00000000	          0.00000000	          0.66900400	          0.00000000	         -0.26571800	          0.00000000	          0.00000000	          0.00000000	
          0.00300000	        -18.09508800	         78.80835200	          5.94692700	          0.07080600	          0.00600000	         -0.21698500	          0.00000000	          0.25957800	          0.00000000	          0.00000000	          0.00000000	          0.00000000	          0.66900400	          0.00000000	         -0.26571800	          0.00000000	          0.00000000	          0.00000000	
          0.00350000	        -18.42234100	         80.23941500	          5.96901000	          0.07130200	          0.00600000	         -0.21689400	          0.00000000	          0.25687200	          0.00000000	          0.00000000	          0.00000000	          0.00000000	          0.66900400	          0.00000000	         -0.26571800	          0.00000000	          0.00000000	          0.00000000	
          0.00400000	        -18.75260000	         81.68272000	          5.99053700	          0.07178900	          0.00600000	         -0.21680600	          0.00000000	          0.25419400	          0.00000000	          0.00000000	          0.00000000	          0.00000000	          0.66900400	          0.00000000	         -0.26571800	          0.00000000	          0.00000000	          0.00000000	
          0.00450000	        -19.08586600	         83.13825700	          6.01149600	          0.07226700	          0.00600000	         -0.21671800	          0.00000000	          0.25154100	          0.00000000	          0.00000000	          0.00000000	          0.00000000	          0.66900400	          0.00000000	         -0.26571800	          0.00000000	          0.00000000	          0.00000000	
          0.00500000	        -19.42214000	         84.60601500	          6.03187300	          0.07273600	          0.00600000	         -0.21663300	          0.00000000	          0.24891200	          0.00000000	          0.00000000	          0.00000000	          0.00000000	          0.66900400	          0.00000000	         -0.26571800	          0.00000000	          0.00000000	          0.00000000	
          0.00550000	        -19.76142100	         86.08597800	          6.05165400	          0.07319600	          0.00600000	         -0.21654800	          0.00000000	          0.24630800	          0.00000000	          0.00000000	          0.00000000	          0.00000000	          0.66900400	          0.00000000	         -0.26571800	          0.00000000	          0.00000000	          0.00000000	
          0.00600000	        -20.10371000	         87.57812900	          6.07082600	          0.07364900	          0.00600000	         -0.21646500	          0.00000000	          0.24372800	          0.00000000	          0.00000000	          0.00000000	          0.00000000	          0.66900400	          0.00000000	         -0.26571800	          0.00000000	          0.00000000	          0.00000000	
          0.00650000	        -20.44900700	         89.08245000	          6.08937400	          0.07409300	          0.00600000	         -0.21638300	          0.00000000	          0.24117000	          0.00000000	          0.00000000	          0.00000000	          0.00000000	          0.66900400	          0.00000000	         -0.26571800	          0.00000000	          0.00000000	          0.00000000	
          0.00700000	        -20.79730900	         90.59891900	          6.10728400	          0.07453000	          0.00600000	         -0.21630200	          0.00000000	          0.23863400	          0.00000000	          0.00000000	          0.00000000	          0.00000000	          0.66900400	          0.00000000	         -0.26571800	          0.00000000	          0.00000000	          0.00000000	
          0.00750000	        -21.14861600	         92.12751200	          6.12454300	          0.07496000	          0.00600000	         -0.21622200	          0.00000000	          0.23612000	          0.00000000	          0.00000000	          0.00000000	          0.00000000	          0.66900400	          0.00000000	         -0.26571800	          0.00000000	          0.00000000	          0.00000000	
          0.00800000	        -21.50292500	         93.66820400	          6.14113500	          0.07538200	          0.00600000	         -0.21614400	          0.00000000	          0.23362600	          0.00000000	          0.00000000	          0.00000000	          0.00000000	          0.66900400	          0.00000000	         -0.26571800	          0.00000000	          0.00000000	          0.00000000	
          0.00850000	        -21.86023300	         95.22096700	          6.15704700	          0.07579800	          0.00600000	         -0.21606600	          0.00000000	          0.23115300	          0.00000000	          0.00000000	          0.00000000	          0.00000000	          0.66900400	          0.00000000	         -0.26571800	          0.00000000	          0.00000000	          0.00000000	
          0.00900000	        -22.22053700	         96.78576900	          6.17226300	          0.07620700	          0.00600000	         -0.21599000	          0.00000000	          0.22870000	          0.00000000	          0.00000000	          0.00000000	          0.00000000	          0.66900400	          0.00000000	         -0.26571800	          0.00000000	          0.00000000	          0.00000000	
